<?xml version="1.0" encoding="utf-8"?>
<!-- Generator: Adobe Illustrator 24.0.3, SVG Export Plug-In . SVG Version: 6.00 Build 0)  -->
<svg version="1.1" xmlns="http://www.w3.org/2000/svg" xmlns:xlink="http://www.w3.org/1999/xlink" x="0px" y="0px"
	 viewBox="0 0 26 25" style="enable-background:new 0 0 26 25;" xml:space="preserve">
<style type="text/css">
	.st0{opacity:0.1;}
	.st1{clip-path:url(#SVGID_2_);}
	.st2{fill:url(#SVGID_5_);}
	.st3{clip-path:url(#SVGID_7_);}
	.st4{fill:url(#SVGID_10_);}
	.st5{fill:#FF2229;}
	.st6{fill:#FFFFFF;}
	.st7{clip-path:url(#SVGID_12_);}
	.st8{fill:#FFFFFF;stroke:#FFFFFF;stroke-miterlimit:10;}
	.st9{fill:none;}
	.st10{fill:none;stroke:#FFFFFF;stroke-miterlimit:10;}
	.st11{fill:#666666;}
	.st12{clip-path:url(#SVGID_14_);}
	.st13{fill:#B3B3B3;}
	.st14{fill:none;stroke:#FFFFFF;stroke-width:3;stroke-miterlimit:10;}
	.st15{clip-path:url(#SVGID_16_);}
	.st16{fill:#0072BF;}
	.st17{fill:#808080;}
	.st18{fill:#F1F1F1;}
	.st19{fill:none;stroke:#FFFFFF;stroke-linecap:round;stroke-linejoin:round;stroke-miterlimit:10;}
	.st20{fill:#999999;}
	.st21{fill:#4C4C4C;}
	.st22{fill:#FFF6C9;}
	.st23{fill:#FFD800;}
	.st24{fill:#FF90CF;}
	.st25{fill:#2A1B02;}
	.st26{fill:#00AA9D;}
	.st27{fill:#001959;}
	.st28{fill:#009E71;}
	.st29{fill:#E02229;}
	.st30{fill:#822229;}
	.st31{fill:none;stroke:#F1F1F1;stroke-miterlimit:10;}
	.st32{fill:none;stroke:#4D4D4D;stroke-miterlimit:10;}
	.st33{fill:#4D4D4D;}
	.st34{fill:none;stroke:#FFFFFF;stroke-width:3;stroke-linecap:round;stroke-linejoin:round;stroke-miterlimit:10;}
</style>
<g id="Capa_2">
	<g>
		<g class="st0">
			<defs>
				<rect id="SVGID_1_" x="-872" y="-787" class="st0" width="1366" height="768"/>
			</defs>
			<clipPath id="SVGID_2_">
				<use xlink:href="#SVGID_1_"  style="overflow:visible;"/>
			</clipPath>
			<g id="unicolombo.psd_1_" class="st1">
				<defs>
					<rect id="SVGID_3_" x="-898" y="-1322" width="2218.2" height="1493"/>
				</defs>
				<clipPath id="SVGID_4_">
					<use xlink:href="#SVGID_3_"  style="overflow:visible;"/>
				</clipPath>
				<g style="clip-path:url(#SVGID_4_);">
					
						<image style="overflow:visible;" width="2600" height="1750" id="unicolombo_1_" xlink:href="DDB2765847FF5867.jpg"  transform="matrix(0.8531 0 0 0.8531 -898 -1322)">
					</image>
				</g>
			</g>
		</g>
	</g>
</g>
<g id="Capa_1">
	<g>
		<path class="st29" d="M8.3,20.5h8.8l1.1-12.5h-11L8.3,20.5z M14.8,10l1.4,0.1l-0.3,8.4l-1.4-0.1L14.8,10z M12,10h1.4v8.4H12V10z
			 M10.7,10l0.3,8.4l-1.4,0.1l-0.3-8.4L10.7,10z"/>
		
			<rect x="11.1" y="13.5" transform="matrix(3.662598e-02 -0.9993 0.9993 3.662598e-02 0.5513 29.0034)" class="st30" width="8.4" height="1.4"/>
		<rect x="12" y="10" class="st30" width="1.4" height="8.4"/>
		
			<rect x="9.4" y="10" transform="matrix(0.9993 -3.658909e-02 3.658909e-02 0.9993 -0.5133 0.3808)" class="st30" width="1.4" height="8.4"/>
		<path class="st30" d="M16.2,5c0-0.7-0.5-1.2-1.2-1.2h-4.6C9.8,3.8,9.2,4.3,9.2,5v1.5H4.3v1.4h1.5L7,21.3c0,0.4,0.3,0.6,0.7,0.6
			h10.1c0.4,0,0.7-0.3,0.7-0.6l1.2-13.3h1.5V6.5h-4.9V5z M10.7,5.2h4.2v1.3h-4.2V5.2z M18.2,7.9l-1.1,12.5H8.3L7.2,7.9H18.2z"/>
	</g>
</g>
</svg>
