<?xml version="1.0" encoding="utf-8"?>
<!-- Generator: Adobe Illustrator 24.0.3, SVG Export Plug-In . SVG Version: 6.00 Build 0)  -->
<svg version="1.1" xmlns="http://www.w3.org/2000/svg" xmlns:xlink="http://www.w3.org/1999/xlink" x="0px" y="0px"
	 viewBox="0 0 26 25" style="enable-background:new 0 0 26 25;" xml:space="preserve">
<style type="text/css">
	.st0{opacity:0.1;}
	.st1{clip-path:url(#SVGID_2_);}
	.st2{fill:url(#SVGID_5_);}
	.st3{clip-path:url(#SVGID_7_);}
	.st4{fill:url(#SVGID_10_);}
	.st5{fill:#FF2229;}
	.st6{fill:#FFFFFF;}
	.st7{clip-path:url(#SVGID_12_);}
	.st8{fill:#FFFFFF;stroke:#FFFFFF;stroke-miterlimit:10;}
	.st9{fill:none;}
	.st10{fill:none;stroke:#FFFFFF;stroke-miterlimit:10;}
	.st11{fill:#666666;}
	.st12{clip-path:url(#SVGID_14_);}
	.st13{fill:#B3B3B3;}
	.st14{fill:none;stroke:#FFFFFF;stroke-width:3;stroke-miterlimit:10;}
	.st15{clip-path:url(#SVGID_16_);}
	.st16{fill:#0072BF;}
	.st17{fill:#808080;}
	.st18{fill:#F1F1F1;}
	.st19{fill:none;stroke:#FFFFFF;stroke-linecap:round;stroke-linejoin:round;stroke-miterlimit:10;}
	.st20{fill:#999999;}
	.st21{fill:#4C4C4C;}
	.st22{fill:#FFF6C9;}
	.st23{fill:#FFD800;}
	.st24{fill:#FF90CF;}
	.st25{fill:#2A1B02;}
	.st26{fill:#00AA9D;}
	.st27{fill:#001959;}
	.st28{fill:#009E71;}
	.st29{fill:#E02229;}
	.st30{fill:#822229;}
	.st31{fill:none;stroke:#F1F1F1;stroke-miterlimit:10;}
	.st32{fill:none;stroke:#4D4D4D;stroke-miterlimit:10;}
	.st33{fill:#4D4D4D;}
	.st34{fill:none;stroke:#FFFFFF;stroke-width:3;stroke-linecap:round;stroke-linejoin:round;stroke-miterlimit:10;}
</style>
<g id="Capa_2">
	<g>
		<g class="st0">
			<defs>
				<rect id="SVGID_1_" x="-812" y="-787" class="st0" width="1366" height="768"/>
			</defs>
			<clipPath id="SVGID_2_">
				<use xlink:href="#SVGID_1_"  style="overflow:visible;"/>
			</clipPath>
			<g id="unicolombo.psd_1_" class="st1">
				<defs>
					<rect id="SVGID_3_" x="-838" y="-1322" width="2218.2" height="1493"/>
				</defs>
				<clipPath id="SVGID_4_">
					<use xlink:href="#SVGID_3_"  style="overflow:visible;"/>
				</clipPath>
				<g style="clip-path:url(#SVGID_4_);">
					
						<image style="overflow:visible;" width="2600" height="1750" id="unicolombo_1_" xlink:href="DDA1A03ED3E2AFD5.jpg"  transform="matrix(0.8531 0 0 0.8531 -838 -1322)">
					</image>
				</g>
			</g>
		</g>
	</g>
</g>
<g id="Capa_1">
	<g>
		<polygon class="st21" points="8.4,19.6 9.2,19.4 8.6,18.8 		"/>
		<path class="st22" d="M10.6,17.1L10.1,16H9.4L9,17.4l1.5,1.5l1.4-0.4v-0.6l-1.1-0.6C10.8,17.3,10.7,17.2,10.6,17.1z"/>
		<path class="st23" d="M11,15.1l0.3,0.7l6.6-6.6l-1-1l-6.5,6.5C10.7,14.8,10.9,14.9,11,15.1z"/>
		<path class="st24" d="M19.9,6c-0.2-0.2-0.5-0.2-0.7,0l-1.4,1.4l2.8,2.8L22,8.8c0.1-0.1,0.1-0.2,0.1-0.3s0-0.2-0.1-0.3L19.9,6z"/>
		<path class="st23" d="M12.2,16.7l0.7,0.3c0.2,0.1,0.3,0.3,0.3,0.5l6.5-6.5l-1-1L12.2,16.7z"/>
		<path class="st25" d="M20.7,5.1c-0.6-0.6-1.8-0.6-2.4,0L8.5,15c-0.1,0.1-0.1,0.2-0.2,0.3l-1.5,5.1c-0.1,0.2,0,0.4,0.2,0.6
			c0.1,0.1,0.3,0.2,0.4,0.2c0.1,0,0.1,0,0.2,0l5.1-1.5c0.1,0,0.2-0.1,0.3-0.2l9.9-9.8c0.3-0.3,0.5-0.8,0.5-1.2
			c0-0.5-0.2-0.9-0.5-1.2L20.7,5.1z M16.9,8.3l1,1l-6.6,6.6L11,15.1c-0.1-0.2-0.3-0.3-0.5-0.3L16.9,8.3z M8.4,19.6l0.2-0.8l0.6,0.6
			L8.4,19.6z M12,18.6L10.6,19L9,17.4L9.4,16h0.6l0.6,1.1c0.1,0.1,0.2,0.2,0.3,0.3l1.1,0.6V18.6z M13.2,17.6c0-0.2-0.1-0.4-0.3-0.5
			l-0.7-0.3l6.6-6.6l1,1L13.2,17.6z M22,8.8l-1.4,1.4l-2.8-2.8L19.2,6c0.2-0.2,0.5-0.2,0.7,0L22,8.1c0.1,0.1,0.1,0.2,0.1,0.3
			S22.1,8.7,22,8.8z"/>
	</g>
</g>
</svg>
