<?xml version="1.0" encoding="utf-8"?>
<!-- Generator: Adobe Illustrator 23.0.5, SVG Export Plug-In . SVG Version: 6.00 Build 0)  -->
<svg version="1.1" xmlns="http://www.w3.org/2000/svg" xmlns:xlink="http://www.w3.org/1999/xlink" x="0px" y="0px"
	 viewBox="0 0 25 25" style="enable-background:new 0 0 25 25;" xml:space="preserve">
<style type="text/css">
	.st0{display:none;}
	.st1{display:inline;fill:#29ABE2;}
	.st2{display:inline;}
	.st3{fill:#FFFFFF;}
	.st4{fill:#F15A24;}
	.st5{display:inline;fill:#333333;}
	.st6{display:inline;fill:#F15A24;}
	.st7{fill:#FFFF00;}
	.st8{fill:#29ABE2;}
	.st9{display:inline;fill:#FFFFFF;}
	.st10{fill:#CA611F;}
	.st11{opacity:0.5;fill:url(#);}
	.st12{clip-path:url(#SVGID_2_);}
	.st13{fill:none;stroke:#808080;stroke-miterlimit:10;}
	.st14{fill:#FFFFFF;stroke:#808080;stroke-miterlimit:10;}
	.st15{clip-path:url(#SVGID_4_);}
	.st16{clip-path:url(#SVGID_4_);fill:#2E3192;}
	.st17{fill:#00A99D;}
	.st18{opacity:0.85;clip-path:url(#SVGID_4_);fill:#00A99D;}
	.st19{fill:none;}
	.st20{clip-path:url(#SVGID_8_);fill:#662D91;}
	
		.st21{clip-path:url(#SVGID_8_);fill:none;stroke:#FFFFFF;stroke-width:10;stroke-linecap:round;stroke-linejoin:round;stroke-miterlimit:10;}
	.st22{fill:#662D91;}
	.st23{fill:#E6E6E6;}
	.st24{fill:url(#);}
	.st25{fill:none;stroke:#662D91;stroke-miterlimit:10;}
	.st26{fill:#F15A24;stroke:#662D91;stroke-miterlimit:10;}
	.st27{fill:#F2F2F2;}
	.st28{fill:none;stroke:#662D91;stroke-linecap:round;stroke-linejoin:round;stroke-miterlimit:10;}
	.st29{fill:#F15A24;stroke:#662D91;stroke-width:2;stroke-miterlimit:10;}
	.st30{fill:#808080;stroke:#4D4D4D;stroke-miterlimit:10;}
	.st31{fill:#B3B3B3;stroke:#808080;stroke-miterlimit:10;}
	.st32{fill:none;stroke:#0071BC;stroke-miterlimit:10;}
	.st33{fill:#C1272D;stroke:#0071BC;stroke-miterlimit:10;}
	.st34{fill:#333333;}
	.st35{fill:none;stroke:#0071BC;stroke-linecap:round;stroke-linejoin:round;stroke-miterlimit:10;}
	.st36{fill:#0071BC;}
	.st37{fill:#C1272D;}
	.st38{fill:#C1272D;stroke:#0071BC;stroke-width:2;stroke-miterlimit:10;}
	.st39{fill:#FFFFFF;stroke:#0071BC;stroke-miterlimit:10;}
	.st40{fill:#FFFFFF;stroke:#B3B3B3;stroke-miterlimit:10;}
	.st41{fill:none;stroke:#000000;stroke-miterlimit:10;}
	.st42{fill:#FFFFFF;stroke:#000000;stroke-miterlimit:10;}
	.st43{fill:#C1272D;stroke:#000000;stroke-miterlimit:10;}
	.st44{fill:none;stroke:#000000;stroke-linecap:round;stroke-linejoin:round;stroke-miterlimit:10;}
	.st45{fill:#C1272D;stroke:#000000;stroke-width:2;stroke-miterlimit:10;}
	.st46{clip-path:url(#SVGID_10_);}
	.st47{fill:#808080;}
	.st48{fill:none;stroke:#C1272D;stroke-miterlimit:10;}
	.st49{clip-path:url(#SVGID_12_);}
	.st50{fill:none;stroke:#FFFFFF;stroke-width:2;stroke-miterlimit:10;}
	.st51{fill:#F2F2F2;stroke:#B3B3B3;stroke-width:2;stroke-miterlimit:10;}
	.st52{fill:#B3B3B3;}
	.st53{fill:none;stroke:#C1272D;stroke-width:2;stroke-linecap:round;stroke-linejoin:round;stroke-miterlimit:10;}
	.st54{fill:none;stroke:#999999;stroke-miterlimit:10;}
	.st55{fill:none;stroke:#FFFFFF;stroke-miterlimit:10;}
	.st56{fill:none;stroke:#FFFFFF;stroke-linecap:round;stroke-linejoin:round;stroke-miterlimit:10;}
	.st57{fill:#999999;}
	.st58{clip-path:url(#SVGID_14_);}
	.st59{clip-path:url(#SVGID_16_);}
	.st60{fill:#808080;stroke:#4D4D4D;stroke-width:2;stroke-miterlimit:10;}
	.st61{fill:#B3B3B3;stroke:#808080;stroke-width:2;stroke-miterlimit:10;}
	.st62{fill:#FF0000;}
	.st63{fill:none;stroke:#FFFFFF;stroke-width:2;stroke-linecap:round;stroke-linejoin:round;stroke-miterlimit:10;}
	.st64{fill:#2E3192;}
	.st65{clip-path:url(#SVGID_18_);}
	.st66{fill:#B3272D;}
	.st67{fill:none;stroke:#C1272D;stroke-width:10;stroke-linecap:round;stroke-linejoin:round;stroke-miterlimit:10;}
	.st68{clip-path:url(#SVGID_20_);}
	.st69{clip-path:url(#SVGID_22_);}
	.st70{fill:#0071BC;stroke:#FFFFFF;stroke-miterlimit:10;}
	.st71{fill:#FFFFFF;stroke:#FFFFFF;stroke-miterlimit:10;}
	.st72{opacity:0.7;}
	.st73{clip-path:url(#SVGID_24_);}
	.st74{clip-path:url(#SVGID_26_);}
	.st75{fill:none;stroke:#B3B3B3;stroke-width:2;stroke-linecap:round;stroke-linejoin:round;stroke-miterlimit:10;}
	.st76{fill:#FFFFFF;stroke:#C1272D;stroke-width:4;stroke-linecap:round;stroke-linejoin:round;stroke-miterlimit:10;}
	.st77{fill:none;stroke:#808080;stroke-width:2;stroke-linecap:round;stroke-linejoin:round;stroke-miterlimit:10;}
	.st78{clip-path:url(#SVGID_28_);}
	.st79{clip-path:url(#SVGID_30_);}
	.st80{clip-path:url(#SVGID_32_);}
	.st81{clip-path:url(#SVGID_34_);}
	.st82{clip-path:url(#SVGID_36_);}
	.st83{fill:#F7F7F7;}
	.st84{fill:#CCCCCC;}
	.st85{clip-path:url(#SVGID_38_);}
	.st86{clip-path:url(#SVGID_40_);}
	.st87{fill:#D9E021;}
	
		.st88{clip-path:url(#SVGID_40_);fill:none;stroke:#000000;stroke-width:10;stroke-linecap:round;stroke-linejoin:round;stroke-miterlimit:10;}
	.st89{clip-path:url(#SVGID_42_);}
	.st90{fill:none;stroke:#FFFFFF;}
	.st91{fill:#D9E021;stroke:#FFFFFF;stroke-miterlimit:10;}
	.st92{clip-path:url(#SVGID_44_);}
	.st93{clip-path:url(#SVGID_46_);}
	.st94{clip-path:url(#SVGID_48_);}
	.st95{fill:#0071BC;stroke:#FFFFFF;stroke-width:2;stroke-miterlimit:10;}
	.st96{clip-path:url(#SVGID_50_);}
	.st97{fill:#C1272D;stroke:#FFFFFF;stroke-width:2;stroke-miterlimit:10;}
	.st98{fill:#C1272D;stroke:#FFFFFF;stroke-width:2;stroke-linecap:round;stroke-linejoin:round;stroke-miterlimit:10;}
	.st99{fill:#FF00FF;}
	.st100{fill:none;stroke:#FFFFFF;stroke-width:10;stroke-linecap:round;stroke-linejoin:round;stroke-miterlimit:10;}
	.st101{fill:#1B1464;stroke:#FFFFFF;stroke-width:2;stroke-miterlimit:10;}
	.st102{fill:#1B1464;}
	.st103{clip-path:url(#SVGID_52_);}
	.st104{clip-path:url(#SVGID_54_);}
	.st105{clip-path:url(#SVGID_56_);}
	.st106{clip-path:url(#SVGID_58_);fill:#FFFFFF;}
	.st107{clip-path:url(#SVGID_52_);fill:#00A99D;}
	.st108{fill:#F15A24;stroke:#FFFFFF;stroke-miterlimit:10;}
	.st109{fill:#666666;}
</style>
<g id="Capa_2" class="st0">
</g>
<g id="Capa_3">
</g>
<g id="Capa_4">
</g>
<g id="Capa_1">
	<g>
		<g>
			<g>
				<path class="st3" d="M24.33,10.87C24.33,10.87,24.33,10.87,24.33,10.87l-10.2-10.2C13.69,0.24,13.11,0,12.5,0
					c-0.61,0-1.19,0.24-1.63,0.67L0.68,10.87c0,0-0.01,0.01-0.01,0.01c-0.89,0.9-0.89,2.35,0,3.25c0.41,0.41,0.95,0.65,1.53,0.67
					c0.02,0,0.05,0,0.07,0h0.41v7.51c0,1.49,1.21,2.69,2.69,2.69h3.99c0.4,0,0.73-0.33,0.73-0.73v-5.88c0-0.68,0.55-1.23,1.23-1.23
					h2.35c0.68,0,1.23,0.55,1.23,1.23v5.88c0,0.4,0.33,0.73,0.73,0.73h3.99c1.49,0,2.69-1.21,2.69-2.69V14.8h0.38
					c0.61,0,1.19-0.24,1.63-0.67C25.22,13.23,25.22,11.77,24.33,10.87L24.33,10.87z M23.29,13.09c-0.16,0.16-0.37,0.25-0.59,0.25
					h-1.11c-0.4,0-0.73,0.33-0.73,0.73v8.24c0,0.68-0.55,1.23-1.23,1.23h-3.26v-5.15c0-1.49-1.21-2.69-2.69-2.69h-2.35
					c-1.49,0-2.69,1.21-2.69,2.69v5.15H5.37c-0.68,0-1.23-0.55-1.23-1.23v-8.24c0-0.4-0.33-0.73-0.73-0.73H2.32
					c-0.01,0-0.02,0-0.03,0c-0.22,0-0.42-0.09-0.58-0.24c-0.33-0.33-0.33-0.86,0-1.18c0,0,0,0,0,0l0,0l10.2-10.2
					c0.16-0.16,0.37-0.25,0.59-0.25c0.22,0,0.43,0.09,0.59,0.25l10.2,10.2c0,0,0,0,0,0C23.62,12.24,23.62,12.77,23.29,13.09
					L23.29,13.09z M23.29,13.09"/>
			</g>
		</g>
	</g>
</g>
<g id="Capa_5">
</g>
</svg>
