<?xml version="1.0" encoding="utf-8"?>
<!-- Generator: Adobe Illustrator 24.0.3, SVG Export Plug-In . SVG Version: 6.00 Build 0)  -->
<svg version="1.1" xmlns="http://www.w3.org/2000/svg" xmlns:xlink="http://www.w3.org/1999/xlink" x="0px" y="0px"
	 viewBox="0 0 26 25" style="enable-background:new 0 0 26 25;" xml:space="preserve">
<style type="text/css">
	.st0{opacity:0.1;}
	.st1{clip-path:url(#SVGID_2_);}
	.st2{fill:url(#SVGID_5_);}
	.st3{clip-path:url(#SVGID_7_);}
	.st4{fill:url(#SVGID_10_);}
	.st5{fill:#FF2229;}
	.st6{fill:#FFFFFF;}
	.st7{clip-path:url(#SVGID_12_);}
	.st8{fill:#FFFFFF;stroke:#FFFFFF;stroke-miterlimit:10;}
	.st9{fill:none;}
	.st10{fill:none;stroke:#FFFFFF;stroke-miterlimit:10;}
	.st11{fill:#666666;}
	.st12{clip-path:url(#SVGID_14_);}
	.st13{fill:#B3B3B3;}
	.st14{fill:none;stroke:#FFFFFF;stroke-width:3;stroke-miterlimit:10;}
	.st15{clip-path:url(#SVGID_16_);}
	.st16{fill:#0072BF;}
	.st17{fill:#808080;}
	.st18{fill:#F1F1F1;}
	.st19{fill:none;stroke:#FFFFFF;stroke-linecap:round;stroke-linejoin:round;stroke-miterlimit:10;}
	.st20{fill:#999999;}
	.st21{fill:#4C4C4C;}
	.st22{fill:#FFF6C9;}
	.st23{fill:#FFD800;}
	.st24{fill:#FF90CF;}
	.st25{fill:#2A1B02;}
	.st26{fill:#00AA9D;}
	.st27{fill:#001959;}
	.st28{fill:#009E71;}
	.st29{fill:#E02229;}
	.st30{fill:#822229;}
	.st31{fill:none;stroke:#F1F1F1;stroke-miterlimit:10;}
	.st32{fill:none;stroke:#4D4D4D;stroke-miterlimit:10;}
	.st33{fill:#4D4D4D;}
	.st34{fill:none;stroke:#FFFFFF;stroke-width:3;stroke-linecap:round;stroke-linejoin:round;stroke-miterlimit:10;}
</style>
<g id="Capa_2">
	<g>
		<g class="st0">
			<defs>
				<rect id="SVGID_1_" x="-782" y="-787" class="st0" width="1366" height="768"/>
			</defs>
			<clipPath id="SVGID_2_">
				<use xlink:href="#SVGID_1_"  style="overflow:visible;"/>
			</clipPath>
			<g id="unicolombo.psd_1_" class="st1">
				<defs>
					<rect id="SVGID_3_" x="-808" y="-1322" width="2218.2" height="1493"/>
				</defs>
				<clipPath id="SVGID_4_">
					<use xlink:href="#SVGID_3_"  style="overflow:visible;"/>
				</clipPath>
				<g style="clip-path:url(#SVGID_4_);">
					
						<image style="overflow:visible;" width="2600" height="1750" id="unicolombo_1_" xlink:href="DD99353219D45B8A.jpg"  transform="matrix(0.8531 0 0 0.8531 -808 -1322)">
					</image>
				</g>
			</g>
		</g>
	</g>
</g>
<g id="Capa_1">
	<g>
		<path class="st6" d="M4.5,14.1c1.2,1.3,2.8,2.5,4.6,3.2c-1.4-1.9-1.4-4.5,0-6.4C6.8,11.9,5.2,13.4,4.5,14.1z"/>
		<path class="st26" d="M13.3,10c-2.2,0-4.1,1.8-4.1,4.1c0,2.3,1.8,4.1,4.1,4.1s4.1-1.8,4.1-4.1C17.3,11.9,15.5,10,13.3,10z
			 M13.3,16.2c-1.1,0-2-0.9-2-2.1s0.9-2.1,2-2.1s2,0.9,2,2.1S14.4,16.2,13.3,16.2z"/>
		<path class="st27" d="M13.3,13.3c-0.5,0-0.8,0.4-0.8,0.8s0.4,0.8,0.8,0.8c0.5,0,0.8-0.4,0.8-0.8S13.7,13.3,13.3,13.3z"/>
		<path class="st6" d="M17.5,17.3c2.3-1,3.9-2.5,4.6-3.2c-1.2-1.3-2.8-2.5-4.6-3.2C18.9,12.8,18.9,15.4,17.5,17.3z"/>
		<path class="st27" d="M23.3,13.7c-1.9-2.3-5.8-4.9-10.1-4.9c-4.3,0-8.2,2.7-10,4.9C3,14,3,14.3,3.2,14.5c1.9,2.3,5.8,4.9,10,4.9
			c4.4,0,8.3-2.8,10.1-4.9C23.5,14.3,23.5,14,23.3,13.7z M9.1,17.3c-1.7-0.7-3.3-1.9-4.6-3.2c0.7-0.7,2.3-2.2,4.6-3.2
			C7.7,12.8,7.7,15.4,9.1,17.3z M13.3,18.2c-2.2,0-4.1-1.8-4.1-4.1c0-2.3,1.8-4.1,4.1-4.1c2.2,0,4.1,1.8,4.1,4.1
			C17.3,16.4,15.5,18.2,13.3,18.2z M17.5,17.3c1.4-1.9,1.4-4.5,0-6.4c1.7,0.7,3.3,1.9,4.6,3.2C21.4,14.8,19.8,16.4,17.5,17.3z"/>
		<path class="st27" d="M13.3,12.1c-1.1,0-2,0.9-2,2.1s0.9,2.1,2,2.1s2-0.9,2-2.1S14.4,12.1,13.3,12.1z M13.3,15
			c-0.5,0-0.8-0.4-0.8-0.8s0.4-0.8,0.8-0.8c0.5,0,0.8,0.4,0.8,0.8S13.7,15,13.3,15z"/>
	</g>
</g>
</svg>
